<svg id="Layer_1" data-name="Layer 1" xmlns="http://www.w3.org/2000/svg" viewBox="0 0 700.11 965.66"><defs><style>.cls-1{fill:#161616;}</style></defs><path class="cls-1" d="M1161.27,679.21c-62.14,37-123.71,50.3-188.62,11.27-1.73,4.83-3.9,8.1-3.95,11.4-.75,46.4-1.83,92.82-1.54,139.22.22,34.95,7.68,42.82,42.58,50.28,14.09,3,28.15,6.68,42.42,8.26,18.72,2.07,27.12,10.52,25,29.94-1.31,12-.24,24.23-.24,38.38h-25.76c-.64-1.24-1.88-2.57-1.92-3.93-1.27-54.9-1.26-54.9-55.66-64.3-46.57-8-69.51-33.42-69.86-81.05-.47-64.71.34-129.44,1.45-194.14.59-34.57,10.47-43.25,45.43-45.76,26.56-1.9,53-5.41,79.59-7.1,15.09-1,22.7-8.3,23.09-22.56.78-28.09.94-56.2.93-84.31,0-17.83-9.15-26.05-27.28-25.34-14.44.56-28.93-.2-43.39-.53-60.24-1.38-79.5-19.43-81-78.5-1.15-44.82-.28-89.69-.76-134.53-.23-21.72,8.72-36.5,29.73-43.11,58.77-18.51,117.44-17.19,173.47,7.85,15.6,7,30.67,24.12,37.32,40.19,12.42,30,18.76,62.49,27.14,94.08,9,33.76,30.22,46.94,62.52,34.59,7.79-3,16-17,16.09-26,.81-73.81.22-147.64-1-221.45-.4-23.26-13.85-35.06-39-35.52-34.18-.62-68.41.84-102.61.6-92.89-.64-185.78-2.07-278.67-2.46-64.65-.26-129.3,1.27-194,.77-21.53-.17-31.23,8.67-30.95,29.37.16,12.15.63,24.33,1.93,36.4,1.6,14.79,10.53,20.23,25.3,19.6C697.54,158.75,727.2,181,740,227.73l-82.29-12.66c-29-4.46-43.48-18.42-45.71-47.7-2-25.76-2.28-51.72-1.87-77.57.45-28,5.91-32.69,34.28-32.63q227.28.51,454.56,1.15c48,.09,95.93-.6,143.89-.48,46.35.13,65.47,19.41,65.7,65q.66,125.63,1.5,251.24c0,7.48,0,15,0,22.83-28.19,0-54.72,2-80.77-.64-21.56-2.2-34.14-18.41-39.5-39.27-5.87-22.82-13-45.48-16.66-68.68-7-44.73-35.86-66.78-77-71.46a352.77,352.77,0,0,0-92.82,2.2c-32.2,5-48.4,37.65-37.39,68.24,2,5.44,10.18,10,16.48,12.27,27.08,9.93,55.44,16.8,81.64,28.56,83.5,37.5,137.63,98.4,137,194.09-.26,40.56-10.67,81.11-17,121.58-7.69,49.47-21.56,98.22-12.74,149.27,6.22,36,34.37,65.28,67.23,67.24,23.27,1.39,30-5.66,26.51-29.4-2.29-15.85,1.23-29.26,18.78-29.9s22,14.22,22.26,28.77c.33,20.59-16.32,39.06-37.09,42.9-47.13,8.73-93.31-21.58-107.09-68.2-10.48-35.5-8-70.69-2.71-106.27C1160,693.15,1160.33,688.08,1161.27,679.21ZM970.62,318.94c0,24.75-.42,49.53.12,74.29.57,26.11,7.1,32.74,33.88,35.07,22.68,2,45.48,2.63,68.12,4.92,26,2.64,43.54,17.29,44.75,43.16,2.09,44.52.58,89.21.58,135.74-11.24-.63-20.17-1.3-29.11-1.58-17.44-.54-35-2.27-52.32-.9-19.24,1.53-26.09,15.45-14.64,30.05,27.9,35.59,90.36,56.65,134,12.45,26-26.3,26.55-60.34,30.72-93.1C1205.18,414.35,1101.74,326.78,970.62,318.94ZM1054.1,685.7c-31.74-11.26-44.54-38.34-56.87-69.29-13.5,22.76-7.69,39.93,2.64,55.19C1012.43,690.16,1031.82,692.07,1054.1,685.7Z" transform="translate(-609.95 -57.17)"/><path class="cls-1" d="M651.5,915c38.3,2.88,70.6-5.09,99.37-26.88,5.48-4.15,13.6-6.39,20.61-6.65,22.82-.83,45.71.36,68.53-.51,36.77-1.41,70.71,2.23,104.7,21.64,23.62,13.49,54.9,13.57,84.59,20v47.48H651.5Z" transform="translate(-609.95 -57.17)"/><path class="cls-1" d="M752.07,448.82c-4.46-5.73-8.28-10.63-13.68-17.58-23.86,26.06-36.79,54.07-38.64,88.57,80.51-27.41,155.52-159.22,128.09-233.92-40.1,25.51-65.78-26.15-108.35-14.66,20.85-32.6,50.38-27.09,74.4-30.92-9.09-36.45-18-72-27.41-109.88,46.25,13.16,67.25,48.79,86.59,82.19l58.39-56.4,5.6,3.8c-6,24-10.38,48.68-18.71,71.89-3.76,10.45-14.16,23.85-23.68,25.87-25.19,5.35-23.55,21-23.62,40-.23,65.19-24.64,122-67.57,169.78-21.1,23.51-48,41.73-70.77,63.86-7.79,7.56-14.71,19.4-15.77,29.92C692,610.57,702.19,658,721.26,703.69L714.17,706c-8.43-21.28-22.49-42.13-24.14-63.93-3.69-49-4.24-98.71.16-147.57,1.87-20.89,17.27-41.79,30.14-60.15,15.55-22.21,24-45.14,23.56-72.15a77.81,77.81,0,0,1,8.18-35.45Z" transform="translate(-609.95 -57.17)"/><path class="cls-1" d="M1115.26,1022.8c-148.12,0-293.3.19-438.47-.46-8.72,0-17.41-6.81-26.12-10.45.65-2.15,1.29-4.3,1.94-6.45,15.58,0,31.16-.1,46.73,0,124.75,1,249.5,1.72,374.23,3.4,18.38.25,28.74-2.47,27.53-24.09-.88-15.65,2.1-31.51,3.36-47.29l5.9-.31C1112,966.15,1113.68,995.14,1115.26,1022.8Z" transform="translate(-609.95 -57.17)"/><path class="cls-1" d="M752.66,526.58c0,8.64,0,17.28,0,25.92q-.82,142.8-1.71,285.59c-.24,32.72-6.15,41.13-38.57,49.77a430,430,0,0,1-62.56,11.69c-12.64,1.43-17.41,5.79-16.88,18.31.68,16.3.16,32.65.16,49l-7.16.18V893.26c24.81-4.11,50.23-7.7,75.38-12.66,33.48-6.59,39.09-13.38,39.4-47.08.87-94.43,1.37-188.87,2-283.31,0-7.87,0-15.75,0-23.63Z" transform="translate(-609.95 -57.17)"/><polygon class="cls-1" points="403.49 541.06 341.85 573.53 393.59 635.17 446.98 643.98 461.29 624.17 423.86 610.96 398.54 577.38 403.49 541.06"/></svg>